<?xml version="1.0" encoding="UTF-8"?>
<svg id="Camada_1" xmlns="http://www.w3.org/2000/svg" version="1.1" viewBox="0 0 2427 736">
  <!-- Generator: Adobe Illustrator 29.5.1, SVG Export Plug-In . SVG Version: 2.1.0 Build 141)  -->
  <path d="M439.8,15.2c34.1,77.7,66.6,156.2,98.6,234.9,20.9,51.4,42.6,102.8,62.3,154.7,1.8,4.6,10.1,24.4,9.1,27.6-1.5,2.1-4.7,3.2-7.1,4-13.1,4.4-29.4,7.4-43.2,10.8-29.4,7.4-59.1,14-88.4,21.7l-4.8-.7-100.9-253c-4.5,1.4-7.9,12.5-10,17-47.1,106.2-89.1,214.7-136,321l-2.5,9.9,4.5,1.1,493-122c5.1.6,8.9,1.9,11.9,6.1l47.5,120.4c-.7,3.5-2,6.9-5,9-200.8,50-402.4,97.3-602.8,149.2l-29.6,4.4-134.6-.5-.5-8.6L291.1,15.1h148.7Z"/>
  <path d="M948.8,6.3c111.2-6.1,225.4,37.7,294.2,126.2,0,1.2-9.3,4.4-11,5-45,15-93.9,25.1-139.5,38.3-17.5-4.5-31.3-16.2-48.5-23.3-49.7-20.3-135.7-26.1-170.4,23.6-39.5,56.5,28.8,97.1,73.9,112.9,113.4,39.7,298.1,57.4,306.6,212.4,10.9,201-198.4,270.5-364,225-48.9-13.4-125.8-50.2-159-89-2.1-2.5-7.4-7.5-5.5-10.5l161.1-44c16.5,1.8,31,11.1,47.3,15.7,50.1,14.1,151.1,13.8,173-45.5,31.6-85.6-118.1-114.2-172-129.5-106.1-30.3-210.3-66-214.8-195.2-4.8-136.4,101.5-215.3,228.8-222.2Z"/>
  <path d="M2120.8,6.3c111.2-6.1,225.4,37.7,294.2,126.2,0,1.2-9.3,4.4-11,5-45,15-93.9,25.1-139.5,38.3-17.5-4.5-31.3-16.2-48.5-23.3-49.7-20.3-135.7-26.1-170.4,23.6-39.5,56.5,28.8,97.1,73.9,112.9,113.4,39.7,298.1,57.4,306.6,212.4,10.9,201-198.4,270.5-364,225-48.9-13.4-125.8-50.2-159-89-2.1-2.5-7.4-7.5-5.5-10.5l161.1-44c16.5,1.8,31,11.1,47.3,15.7,50.1,14.1,151.1,13.8,173-45.5,31.6-85.6-118.1-114.2-172-129.5-106.1-30.3-210.3-66-214.8-195.2-4.8-136.4,101.5-215.3,228.8-222.2Z"/>
  <path d="M1880,729c-1.8.5-3.5.9-5.5,1.1-59.3,4.1-123.3-3.2-183.1,0-7.8-.7-11.5-4.1-16.4-9.6l-133.1-169-2.4-.6-102.1,26-1.9,2.1-2.6,149.9-29.4,2.1c-33.4-1.8-68.9,2.2-102.1,0s-13.7-.4-13.5-9.5c2.2-76.2-2.8-154,0-230.1.2-6.6,1.5-13.7,1.5-20.5l565.9-142.9c3.3,1,.8,9.3.2,11.9-12.2,50.5-53.3,102.4-95.2,131.8-17.2,12.1-32.9,18.5-51,28-1.6.9-7.4,3.9-7.2,5.5l177.9,223.7Z"/>
  <path d="M1863.9,292.9c-52.8,16-106.6,29.8-160.9,40.1,10.9-17.8,18.5-37.7,20.9-58.6,7.2-64.7-36.1-128-102.4-135.4-57.9,2.9-119.6-3.9-177,0-3.5.2-6.8.9-10.2,1.7l-2.3,8.8-.4,251.6c-2.1,3.5-69.4,20-78.7,22.3s-59.5,14.8-61.8,12.6l.9-418.2,9.5-2.8h329.1c66.7,3.4,138.2,41.4,179.4,93.6,40.1,50.6,60.7,119.8,53.9,184.3Z"/>
  <path d="M559.3,727.7l-21.3-54.3.9-2,149.5-37.6c2.8,0,5.5.6,6.7,3.4,9.5,26.1,22.2,51.3,31.5,77.5s4.4,12.5,4.2,13.7-1.4,1.5-2.4,1.6l-160,1-9.2-3.3Z"/>
</svg>