<?xml version="1.0" encoding="UTF-8"?>
<svg id="Camada_2" data-name="Camada 2" xmlns="http://www.w3.org/2000/svg" viewBox="0 0 597.42 544.83">
  <g id="Logo_EA" data-name="Logo EA">
    <path d="M388.65,0c16.79,44.06,33.57,88.12,50.37,132.18,2.42,6.35,4.9,12.67,7.54,19.46,18.99-9.11,34.41-20.85,44.5-39.27,6.57,15.54,1.7,35.61-13.38,47.73-10.55,8.48-22.55,15.86-35.01,21.15-44.38,18.84-91.05,30.44-137.87,41.38-48.11,11.24-96.24,22.36-144.21,34.17-14.07,3.46-27.95,8.28-41.32,13.9-13.29,5.59-25.82,12.96-38.89,19.66.41-17.03,8.33-30.42,23.44-38.85,7.34-4.09,11.06-9.61,13.91-17.08,29.01-76.11,58.27-152.13,87.44-228.18.78-2.03,1.3-4.16,1.94-6.24,26.41,0,52.81,0,79.22,0-17.42,69.93-34.84,139.85-52.72,211.62,41.45-9.58,81.12-18.74,121.56-28.09C339.67,121.32,324.55,60.66,309.43,0c26.41,0,52.81,0,79.22,0Z"/>
    <path d="M597.42,544.83c-12.42-2.23-23.35-4.55-34.4-6.12-38.61-5.49-77.25-10.85-115.92-15.92-5.41-.71-7.95-2.24-9.34-7.92-12.49-51.18-25.37-102.27-38.11-153.4-.51-2.06-.72-4.21-.91-5.37,37.4-12.74,74.18-25.26,111.63-38.01,28.53,74.31,57.49,149.76,87.04,226.72Z"/>
    <path d="M541.84,201.73c8.11,27.12,1.38,49.51-15.65,69.27-11.2,12.99-25.75,21.89-41.74,27.18-45.1,14.9-90.21,29.92-135.9,42.83-69.77,19.71-140.18,37.17-210.02,56.63-32.95,9.18-64.38,22.6-91.2,44.65-10.09,8.29-19.44,17.48-28.46,25.66.72-27.69,11.1-53.17,34.32-71.48,14.29-11.27,30.49-20.66,46.98-28.5,39.97-19,83.37-27.27,125.97-38.08,73.2-18.57,146.19-37.96,219.2-57.29,8.97-2.38,17.61-6.22,26.18-9.89,33.87-14.49,50.43-28.77,70.35-60.96Z"/>
    <path d="M47.37,373.76c-3.31-26.24,6.42-47.09,32.26-59.83,22.79-11.24,46.57-21.56,71.03-28.09,55.17-14.71,111.22-26.1,166.56-40.24,42.53-10.87,84.54-23.82,126.72-36.04,5.24-1.52,10.19-4.09,15.16-6.42,24.74-11.59,45.63-27.41,57.73-54.37,5.69,16.14,4.29,30.46-2.22,44.35-8.52,18.17-22.96,30.52-40.38,39.75-27.41,14.52-56.9,23.27-86.78,30.74-73.28,18.34-146.71,36.03-219.92,54.62-30.62,7.78-61.02,16.87-88.47,33.11-10.99,6.5-20.95,14.74-31.68,22.41Z"/>
    <path d="M184.18,409.3c-2.81,11.32-5.62,22.67-8.44,34.01-6.03,24.2-12.21,48.36-17.98,72.63-1.1,4.61-3.22,6.07-7.67,6.71-48.06,6.89-96.09,14.01-144.13,21.03-2.08.3-4.21.3-5.96.41,8.51-39.15,28.34-69.77,63.03-90.49,37.02-22.11,77.64-34.18,118.87-44.87.42-.11.95.22,2.28.57Z"/>
  </g>
</svg>